# xmcd
#
# Track frame offsets:
# 150
# 36789
# 46993
# 73099
# 86543
# 98000
# 106244
# 137679
# 163435
# 185014
# 195829
# 214964
# 238384
# 256467
#
# Disc length: 3520 seconds
#
# Revision: 5
# Processed by: cddbd v1.4PL0 Copyright (c) Steve Scherf et al.
# Submitted via: Axialis_AX_CDPlayer 2.6
#
DISCID=cb0dbe0e
DTITLE=Mike Oldfield - Tubular Bells II
DYEAR=2000
DGENRE=Blues
TTITLE0=Sentinel
TTITLE1=Dark Star
TTITLE2=Clear Light
TTITLE3=Blue Saloon
TTITLE4=Sunjammer
TTITLE5=Red Dawn
TTITLE6=The Bell
TTITLE7=Weightless
TTITLE8=The Great Plain
TTITLE9=Sunset Door
TTITLE10=Tattoo
TTITLE11=Altered State
TTITLE12=Maya Gold
TTITLE13=Moonshine
EXTD=\n YEAR: 2000 ID3G:   0
EXTT0=
EXTT1=
EXTT2=
EXTT3=
EXTT4=
EXTT5=
EXTT6=
EXTT7=
EXTT8=
EXTT9=
EXTT10=
EXTT11=
EXTT12=
EXTT13=
PLAYORDER=
